<svg version="1.1" xmlns="http://www.w3.org/2000/svg" xmlns:xlink="http://www.w3.org/1999/xlink" width="257.19044" height="245.43847" viewBox="0,0,257.19044,245.43847"><g transform="translate(-98.95305,-95.11047)"><g data-paper-data="{&quot;isPaintingLayer&quot;:true}" fill="#9966ff" fill-rule="nonzero" stroke="none" stroke-width="0.5" stroke-linecap="butt" stroke-linejoin="miter" stroke-miterlimit="10" stroke-dasharray="" stroke-dashoffset="0" style="mix-blend-mode: normal"><path d="M183.76507,123.68392c0,-1.38071 1.11929,-2.5 2.5,-2.5c1.38071,0 2.5,1.11929 2.5,2.5c0,1.38071 -1.11929,2.5 -2.5,2.5c-1.38071,0 -2.5,-1.11929 -2.5,-2.5z"/><path d="M232.43363,120.20759c0,-1.38071 1.11929,-2.5 2.5,-2.5c1.38071,0 2.5,1.11929 2.5,2.5c0,1.38071 -1.11929,2.5 -2.5,2.5c-1.38071,0 -2.5,-1.11929 -2.5,-2.5z"/><path d="M230.39125,137.247c-10.33471,0.82725 -20.70029,0.74189 -31.07833,1.10255c-3.862,0.13421 -7.62219,0.58623 -11.48861,0.54861c-4.26609,1.46019 -7.17826,1.76499 -11.77372,1.77044c-2.59724,0.00308 -5.23376,-0.73855 -7.78727,-0.26393c-1.1718,0.2178 -0.37665,2.36612 -0.3562,3.55781c0.04028,2.34631 0.94677,4.6045 1.64212,6.84576c1.03528,3.33691 2.01762,5.63366 3.77838,8.64216c1.20885,2.06547 1.5346,4.86979 3.46029,6.29077c4.75908,3.51174 12.48822,2.47105 16.4002,-1.52972c2.35493,-2.3492 4.75758,-4.91593 6.61458,-7.69104c0.92897,-1.38826 1.36838,-3.44735 2.39528,-4.74949c3.53665,-4.48455 9.28619,-6.43013 14.03969,-9.35567c1.23359,-0.75921 5.57412,-3.89623 7.02026,-4.33837c2.061,-0.63013 4.31221,-0.24149 6.43797,-0.59638zM235.39215,136.76949c0.30353,0.25915 0.57136,0.63877 0.75442,1.18794c0.79057,2.37171 -1.58114,3.16228 -1.58114,3.16228l-3.66427,1.21335c-2.08254,0.34662 -4.28171,-0.02838 -6.30856,0.56239c-3.1141,0.90768 -7.03763,4.49068 -9.83295,6.12127c-2.95348,1.72284 -6.37037,2.87703 -8.50546,5.67775c-1.01956,1.33741 -1.30901,3.12008 -2.23982,4.52071c-2.0476,3.08112 -4.68764,5.92289 -7.29072,8.53181c-5.60976,5.51214 -16.34718,7.2172 -22.99815,1.9466c-2.24281,-1.77733 -3.32397,-5.34743 -4.65113,-7.61453c-1.95508,-3.33972 -3.19982,-6.18672 -4.33304,-9.89825c-1.07926,-3.53479 -3.22993,-8.56301 -1.70591,-12.48522c1.8857,-4.85302 3.64083,-3.9118 8.01517,-4.02698c5.8295,-0.1535 10.41811,0.10245 15.97281,-1.70588c17.57941,-0.14274 35.86652,-0.16773 53.27635,-2.89235c8.17807,-1.27986 15.97867,-5.75119 24.18266,-5.83075c0,0 2.5,0 2.5,2.5c0,2.5 -2.5,2.5 -2.5,2.5c-2.52166,-0.03143 -5.00288,0.7945 -7.39773,1.58472c-5.11611,1.68815 -10.60313,3.33248 -15.92939,4.17229c-1.91979,0.3027 -3.84087,0.55739 -5.76313,0.77285z"/><path d="M225.28143,277.11275c0,4.13246 0,8.26491 0,12.39737c0,2.10447 -0.58409,4.27313 -0.06688,6.31305c0.50467,1.99045 1.87041,3.6568 2.75497,5.50994c0,2.28474 -0.42413,2.83628 0.97247,4.62255c0.9147,1.16992 2.41278,1.91234 3.03656,3.26004c0.52037,1.12427 0.16026,2.47319 0.1903,3.71168c0.08126,3.34968 0.47627,7.38411 -0.28279,10.71089l1.60735,0.80368c0.84561,0.40086 1.43041,1.26228 1.43041,2.26029c0,1.1246 -0.74256,2.07576 -1.76412,2.38994l-4.07777,1.35926l-0.0192,-0.05759c-0.12267,0.05318 -0.24628,0.10444 -0.37092,0.1536c-2.32047,0.91528 -5.88591,-0.39139 -8.35991,0.01355c-1.63586,0.26776 -3.18041,0.99119 -4.82364,1.2092c-3.73802,0.49591 -7.90265,-0.44553 -11.61119,0.15474c-2.38355,0.38581 -4.36691,2.15146 -6.7135,2.72038c-3.86349,0.93667 -9.02016,0.06688 -12.97175,0.06688c-1.51907,0 -3.22968,-0.93581 -4.55323,-0.1903c-1.13155,0.63736 -1.57308,2.21667 -2.75497,2.75497c-2.05453,0.93575 -6.90297,0.1903 -9.22162,0.1903c-5.84303,0 -12.1072,0.62956 -17.90731,0c-1.59805,-0.17346 -3.98177,0.46357 -4.72549,-0.96147c-1.04477,-2.00189 0.531,-4.4861 0.70754,-6.73731c0.31663,-4.03769 0.53285,-8.5119 3.62766,-11.72133c0.7472,-0.77488 2.0982,-0.73171 2.86823,-1.48391c1.87959,-1.83607 2.1499,-4.93445 4.0192,-6.781c2.21961,-2.19261 3.60664,-1.33702 5.81593,-3.01531c1.03416,-0.78559 1.69567,-2.00363 2.75497,-2.75497c3.75058,-2.6602 8.16585,-1.84938 12.48166,-1.84938c1.7014,0.05218 3.26641,-0.97678 4.93556,-1.31061c1.35074,-0.27015 2.75497,0 4.13246,0l0.1564,-0.08349c-0.73664,-1.2445 -1.72816,-2.39677 -2.01514,-3.79644c-0.79843,-3.89406 0.9672,-8.58267 0,-12.39737c-0.50467,-1.99045 -2.24125,-3.52181 -2.75497,-5.50994c-0.24426,-0.94532 0.15686,-1.97149 -0.0346,-2.9289c-0.28472,-1.42381 -1.10172,-2.70689 -1.37749,-4.13246c-0.5722,-2.95804 -0.03228,-7.07379 -0.03228,-10.04286c0,-4.24569 -0.25658,-8.59529 0.1903,-12.81815c-0.91832,-0.91832 -2.21667,-1.57308 -2.75497,-2.75497c-0.23732,-0.52107 -0.1903,-5.51777 -0.1903,-6.46665c0,-6.88743 0,-13.77486 0,-20.66229c0,-2.78074 0.4995,-6.19853 0.10727,-8.91794c-0.12399,-0.85964 -0.1448,-2.09824 -0.94882,-2.42671c-0.61824,-0.25257 -0.84216,1.04335 -1.33552,1.49348c-1.17417,1.07128 -2.42201,2.05934 -3.65622,3.06086c-1.51496,1.22933 -2.8366,2.77655 -4.5905,3.63105c-1.59325,0.77623 -3.24952,-0.72083 -4.59324,0.79457c-0.79885,0.90091 -0.83495,2.4372 -1.83092,3.11383c-0.71947,0.48878 -1.73835,-0.06568 -2.60752,-0.09852c-0.32497,1.87842 -1.42277,3.56185 -1.78362,5.43371c-0.26075,1.35258 0.28553,2.78489 0,4.13246c-0.42564,2.00884 -2.2503,3.51949 -2.75497,5.50994c-0.40421,1.5942 0.06536,3.28884 0.06688,4.93349c0.00411,4.45543 0.05696,8.79213 0.46186,13.23405c0.1513,1.65979 0.38027,3.31437 0.45268,4.97947c0.05292,1.217 -0.81747,2.68616 -0.07727,3.65363c0.72477,0.9473 2.45178,0.2106 3.487,0.80304c1.17754,0.67388 1.81625,2.04051 2.90242,2.85349c0.86693,0.64888 2.06841,0.77784 2.89063,1.48252c3.06001,2.62258 2.18353,4.07953 3.50225,7.94314c0.36417,1.06694 1.20243,1.95179 1.4659,3.04795c0.82529,3.43372 -0.05478,6.77321 -1.50091,9.79601c-0.71272,2.09012 -0.72163,4.36196 -1.25406,6.5051c-0.24755,0.99643 -1.16989,1.74946 -1.37749,2.75497c-0.3044,1.47439 0.49065,3.14022 -0.12342,4.51478c-0.71457,1.59953 -2.23993,2.72572 -3.60289,3.82637c-0.90268,0.72895 -2.06352,1.06147 -3.09871,1.58545c-4.19143,2.12156 -9.1509,5.44732 -14.08979,4.32951c-0.26738,-0.06051 -5.33348,-2.64051 -5.94125,-2.73774c-1.75164,-0.28021 -3.6087,0.37589 -5.32101,-0.08754c-1.17045,-0.31677 -1.91132,-1.49942 -2.93631,-2.14725c-1.7112,-1.08153 -3.89434,-1.54031 -5.26099,-3.0337c-0.58721,-0.64166 0.69571,-1.97514 0.09852,-2.60752c-0.71097,-0.75286 -2.0771,-0.20693 -3.06106,-0.52956c-0.97561,-0.3199 -1.80608,-0.98537 -2.75497,-1.37749c-1.5378,-0.63548 -3.38511,-0.67209 -4.69323,-1.70042c-1.38584,-1.08943 -1.75784,-3.10592 -3.00525,-4.35146c-1.23278,-1.23092 -2.87422,-1.9694 -4.31132,-2.9541c-1.80061,-4.25857 -5.90686,-7.55455 -7.33353,-11.86406c-0.12755,-0.38528 -0.10727,-6.29401 -0.10727,-7.61189c0,-6.00553 -1.08947,-10.85837 3.60047,-15.64905c2.50161,-2.55535 4.36537,-1.29006 7.22761,-3.0074c1.22342,-0.73405 1.81563,-2.3435 3.11259,-2.93804c0.56899,-0.26083 7.49683,-0.1903 7.84414,-0.1903c2.75497,0 5.53032,-0.33444 8.26491,0c0.40668,0.04974 0.6975,1.02194 0.9872,0.73223c0.28971,-0.28971 -0.65356,-0.58512 -0.73223,-0.9872c-0.17634,-0.90123 0,-1.83665 0,-2.75497c0,-1.83665 0,-3.6733 0,-5.50994c0,-0.43841 -0.00939,-5.69495 0.03228,-5.9104c0.27576,-1.42557 1.09079,-2.70904 1.37749,-4.13246c0.20271,-1.00642 -0.30557,-2.12549 0.07499,-3.07898c0.16282,-0.40795 5.52932,-8.57658 5.96932,-9.12543c0.74402,-0.92808 1.94501,-1.46717 2.5617,-2.48433c1.46366,-2.41414 1.3785,-5.52121 2.63581,-8.04897c1.51364,-3.0431 5.14991,-9.42019 7.47871,-11.7957c0.68409,-0.69781 1.95132,-0.57949 2.64171,-1.27106c0.72538,-0.72662 0.65149,-2.02897 1.37749,-2.75497c0.726,-0.726 2.02821,-0.65225 2.75497,-1.37749c0.7661,-0.7645 0.63705,-2.23232 1.50725,-2.87584c1.81397,-1.34144 4.13197,-1.77326 6.24852,-2.59404c-2.81698,-0.86097 -5.64706,-1.74482 -8.3222,-2.85003c-2.94923,-1.21844 -5.81322,-2.66089 -8.56302,-4.27988c-1.26349,-0.7439 -2.24155,-1.97798 -3.6021,-2.52452c-1.03786,-0.41691 -2.40836,0.34544 -3.34484,-0.2661c-1.00815,-0.65836 -0.97463,-2.26733 -1.83092,-3.11383c-0.63809,-0.63079 -1.72934,-0.58126 -2.44898,-1.11715c-1.08285,-0.80634 -1.827,-2.0025 -2.87817,-2.84972c-2.42918,-1.95787 -5.51793,-3.86421 -6.35809,-6.86892c-0.66982,-2.39549 -0.06688,-4.97444 -0.06688,-7.46181c0,-2.86721 -0.62204,-7.3752 0.06688,-10.21678c0.27315,-1.12664 1.07364,-2.05963 1.50091,-3.1373c1.58936,-4.00875 2.76477,-8.31087 4.13246,-12.39737c2.65658,-5.3421 5.33071,-10.67548 7.99887,-16.0118c0.78543,-1.57086 4.43205,-9.08409 5.39388,-9.95286c0.77127,-0.69666 2.18128,0.27828 3.11259,-0.18307c0.99871,-0.49474 1.36207,-1.79964 2.2499,-2.47338c0.28133,-0.21349 6.14917,-3.1091 6.39734,-3.15999c2.88571,-0.59168 9.20013,-0.72752 12.16865,0c0.2014,0.04936 5.38826,2.64978 5.94125,2.73774c1.05235,0.1674 2.21662,0.21125 3.41878,0.19764c-0.02407,-0.15507 -0.03705,-0.32218 -0.03705,-0.50226c0,-2.5 2.5,-2.5 2.5,-2.5c20.20312,0 40.40625,0 60.60937,0c4.1655,0.04261 8.64911,1.33042 12.58013,2.73622c1.52624,0.54581 2.83358,1.63586 4.38781,2.09596c1.5791,0.46747 3.3012,0.24676 4.89722,0.65274c3.09579,0.78747 4.2952,2.30346 7.46249,2.81227c3.07336,0.49372 6.48399,0.16057 9.17879,1.71858c1.21909,0.70482 1.92957,2.06414 3.02562,2.94824c1.41729,1.14323 3.34117,1.69943 4.48882,3.11314c1.1408,1.40527 1.22062,3.42588 2.10266,5.00644c2.04243,3.65993 5.59453,6.90393 6.65404,11.14671c1.83699,7.35618 -0.97501,15.65612 -2.38705,22.69275c-0.04943,0.13264 -3.65099,9.80177 -3.6678,9.8248c-0.63779,0.87416 -2.10673,0.74517 -2.87543,1.50677c-0.63738,0.63151 -0.56469,1.74198 -1.11715,2.44898c-0.99974,1.27942 -2.08914,2.56363 -3.46875,3.41982c-1.39653,0.86669 -3.07217,1.18411 -4.65622,1.62257c-0.94206,0.26076 -2.24335,-0.26109 -2.89492,0.46755c-0.68258,0.76333 0.58157,2.47806 -0.26034,3.06096c-1.36293,0.94363 -3.41469,-0.09892 -4.94352,0.54193c-1.02788,0.43086 -1.35583,1.80793 -2.2499,2.47338c-1.87272,1.39384 -4.31623,1.69491 -6.58923,2.34749c0.13554,0.04679 0.27155,0.09352 0.40808,0.14013c1.55548,0.53097 3.24198,0.78508 4.65622,1.62257c1.1674,0.69131 1.81592,2.04094 2.90242,2.85349c0.82221,0.61491 1.93628,0.7579 2.75497,1.37749c0.94967,0.7187 1.40012,2.06152 2.47284,2.57889c1.48106,0.71431 3.3129,0.34106 4.84091,0.94851c0.75234,0.29909 1.01151,1.36348 1.75873,1.67514c1.51537,0.63205 3.30855,-0.44178 4.92355,-0.14576c2.02752,0.37163 4.1879,0.58877 5.96375,1.63534c1.21169,0.71409 1.61694,2.30742 2.53476,3.37312c2.40969,2.79795 4.80458,5.4592 6.99899,8.4084c0.53562,0.71984 0.47894,1.8183 1.11715,2.44898c0.73029,0.72168 1.83665,0.91832 2.75497,1.37749c1.91907,3.56539 2.46569,8.12852 4.49132,11.47333c0.73908,1.22039 2.31042,1.83131 2.93804,3.11259c0.63886,1.30421 -0.92302,3.70306 0.38211,4.34002c0.44582,0.21758 0.94567,-0.34021 1.44064,-0.37337c1.3744,-0.09208 2.75497,0 4.13246,0c4.54908,0 9.94629,-0.89751 14.34924,0.06688c1.00294,0.21968 1.76003,1.12405 2.75497,1.37749c1.01419,0.25834 2.19743,-0.33697 3.1373,0.12342c1.28128,0.62763 1.90313,2.1812 3.11259,2.93804c1.48603,0.92991 3.62759,0.78221 4.84623,2.04234c0.75825,0.78406 -0.20995,2.28635 0.28159,3.26004c0.58528,1.15935 2.32328,1.53011 2.75497,2.75497c0.60528,1.71738 -0.16229,3.66541 0.14065,5.46096c0.44305,2.62592 1.94605,4.96106 2.77234,7.49267c-0.01153,1.31951 -0.27554,2.66115 -0.0346,3.95853c0.37494,2.01891 2.26135,3.51672 2.75497,5.50994c0.10395,0.41975 0.08669,6.47422 -0.04039,6.80879c-3.14604,8.28269 -10.26122,12.88509 -17.80453,16.66395c-3.29671,1.65151 -6.66987,3.72361 -10.35998,4.36411c-1.30012,0.22566 -2.6646,-0.29342 -3.95853,-0.0346c-1.00677,0.20138 -1.75602,1.14034 -2.75497,1.37749c-4.6638,1.10714 -10.96673,0.06688 -15.72673,0.06688c-5.88822,0 -13.50874,1.21335 -18.18434,-3.38078c-1.3336,-1.31036 -2.14675,-3.06212 -3.18059,-4.6199c-1.04918,-1.58088 -2.38787,-3.02332 -3.06758,-4.79475c-0.47987,-1.25063 0.21447,-5.80988 -0.04039,-7.03751c-0.2087,-1.00528 -1.14034,-1.75602 -1.37749,-2.75497c-0.46907,-1.97594 -0.52092,-7.44993 0,-9.41368c0.74369,-2.80353 2.8271,-5.28709 5.1038,-6.96367c0.58861,-0.43346 1.70359,-0.04327 2.09012,-0.66371c0.42379,-0.68023 -0.54149,-1.68052 -0.18307,-2.39735c0.63806,-1.27612 2.20399,-1.88917 2.93804,-3.11259c1.13483,-1.89138 1.41776,-4.19741 2.44848,-6.14748c0.33294,-3.3015 -3.36733,-2.59737 -4.96546,-4.67504c-0.85261,-1.10846 -0.27632,-3.00538 -1.25662,-4.00269c-0.892,-0.90749 -2.58788,-0.36394 -3.67902,-1.01863c-3.30146,-1.98087 -5.34508,-6.06298 -8.41236,-8.36344c-0.92576,-0.69432 -2.24771,-0.81458 -3.06096,-1.63782c-0.60161,-0.60899 -0.21673,-1.91392 -0.92405,-2.39611c-0.61822,-0.42146 -1.54793,0.54996 -2.23121,0.24508c-1.72067,-0.76776 -3.02216,-2.25461 -4.59558,-3.29118c-3.50332,-2.30799 -7.20405,-3.22066 -10.88423,-5.10937c-0.35288,-0.1811 -0.90899,-0.37775 -1.43046,-0.59207c0.36186,0.60569 0.68085,1.2366 0.84916,1.91408c0.23541,0.94756 -0.15686,1.97149 0.0346,2.9289c0.28472,1.42381 0.91832,2.75497 1.37749,4.13246c-0.04954,3.69574 1.88098,4.57358 2.72038,8.09099c0.1577,0.66084 -0.7041,1.46412 -0.3065,2.01503c0.60086,0.83253 2.36816,0.42642 2.75497,1.37749c1.27446,3.13358 0.61352,10.12721 0.37337,13.7117c-0.06334,0.94547 -0.84115,1.99405 -0.37337,2.81813c0.50684,0.89289 2.3092,0.45259 2.75497,1.37749c0.73199,1.51875 0.035,3.3884 0.34109,5.04633c0.52723,2.85573 2.18238,5.41793 2.75497,8.26491c0.15985,0.79479 -0.38145,1.68042 -0.07499,2.43097c0.62583,1.53269 2.17229,2.58286 2.75497,4.13246c1.07161,2.84986 -0.52574,6.85931 0.04039,9.79248c0.38915,2.01622 2.23807,3.52263 2.75497,5.50994c0.23116,0.88875 0,1.83665 0,2.75497c0.45916,0.91832 1.14034,1.75602 1.37749,2.75497c0.42421,1.78699 -0.47137,3.73481 0,5.50994c0.26351,0.99233 1.12847,1.75891 1.37749,2.75497c0.32064,1.28257 -0.92941,3.37785 0.25869,3.9577c0.44582,0.21758 0.94652,-0.3294 1.44064,-0.37337c1.82942,-0.1628 3.6733,0 5.50994,0c4.13246,0 8.26491,0 12.39737,0c0.61707,0 5.76269,-0.01844 6.08433,0.06688c2.52698,0.67033 4.32531,2.94321 6.39734,4.53747c1.7729,1.36411 5.07375,1.63051 6.73998,2.65645c2.47251,1.52239 4.79759,5.28781 6.38117,7.49717c3.53263,4.94568 6.78681,10.44127 10.74188,15.05329c1.20312,1.40296 3.06767,2.31822 3.84453,3.99521c0.79355,1.71301 1.39888,3.91304 0.61442,5.63023c-0.71592,1.56717 -2.79137,2.11096 -4.41463,2.68853c-1.92715,0.68571 -8.85691,0.32731 -10.61724,0.0346c-4.47394,-0.74394 -8.51562,-3.3129 -13.06324,-3.95972c-8.9051,-1.26659 -18.85113,-0.14046 -27.86088,-0.14046c-6.88743,0 -13.77486,0 -20.66229,0c-2.16547,0 -7.83494,0.75971 -9.57924,-0.37337c-0.56882,-0.3695 -3.62648,-6.11145 -3.87377,-7.06219c-0.23116,-0.88875 0.22273,-1.86407 0,-2.75497c-0.24902,-0.99606 -1.14034,-1.75602 -1.37749,-2.75497c-0.86254,-3.63341 0.26342,-5.54963 -1.25406,-9.26007c-1.55193,-3.79468 -4.35253,-6.78923 -4.13246,-11.01989c-0.91832,-0.91832 -2.21667,-1.57308 -2.75497,-2.75497c-0.51349,-1.12742 -0.23429,-2.47361 -0.1903,-3.71168c0.01762,-0.49577 0.69358,-1.06175 0.37337,-1.44064c-0.66272,-0.78419 -2.24362,-0.48717 -2.75497,-1.37749c-1.03882,-1.8087 0.20613,-4.22806 -0.3065,-6.24989c-0.50467,-1.99045 -2.26135,-3.51672 -2.75497,-5.50994c-0.26683,-1.07746 -0.13805,-2.22163 -0.06688,-3.32935c0.03181,-0.49506 0.69358,-1.06175 0.37337,-1.44064c-0.51099,-0.60465 -1.56785,-0.5665 -2.25941,-0.92546c-0.00048,0.48332 -0.0014,0.84689 -0.0014,0.98861zM177.3244,307.16246c-2.28373,0 -5.4704,-0.56353 -7.69053,-0.06688c-2.16473,0.48426 -2.95287,2.4894 -4.62255,3.72744c-1.54522,1.14576 -3.85752,1.12074 -5.20395,2.49463c-1.90888,1.94781 -2.33652,5.04636 -4.24572,6.99386c-0.68409,0.69781 -1.93354,0.5977 -2.64171,1.27106c-2.41374,2.29506 -1.56102,6.21855 -2.21189,8.88193c-0.2711,1.10933 -1.23541,1.92904 -1.71782,2.96412c-0.00821,0.01761 -0.01481,0.03163 -0.0199,0.04233c0.07819,-0.15721 0.48645,-0.94163 0.80436,-1.0038c1.35188,-0.26435 2.75497,0 4.13246,0c4.59162,0 9.18324,0 13.77486,0c1.83665,0 3.6749,-0.0767 5.50994,0c0.60224,0.02517 1.27308,0.48612 1.79826,0.1903c1.13155,-0.63736 1.57308,-2.21667 2.75497,-2.75497c1.12742,-0.51349 2.47336,-0.15386 3.71168,-0.1903c2.22723,-0.06554 4.46914,-0.03996 6.70529,-0.01828c0.5082,0.07959 1.02909,0.1209 1.55962,0.1209c0.48782,0 0.96748,-0.03493 1.43661,-0.10242c1.62686,0.01121 3.30339,0.47682 4.87644,0.06667c2.44892,-0.63852 4.56656,-2.3642 7.06136,-2.78957c3.77274,-0.64325 7.94511,0.34151 11.74704,-0.17488c4.21559,-0.57257 8.46246,-1.9301 12.62133,-1.08019c-0.23362,-2.91851 -0.29569,-5.72817 -0.29569,-8.67459c0,-1.37749 -0.04418,-2.75568 0,-4.13246c0.01933,-0.60246 0.4864,-1.27324 0.1903,-1.79826c-0.5475,-0.97079 -1.82079,-1.3464 -2.47338,-2.2499c-2.18617,-3.02675 -1.7825,-3.26927 -1.7825,-6.39734c-0.56339,-1.05542 -2.55688,-4.71006 -2.75497,-5.50994c-1.2322,-4.97558 -0.06688,-11.93947 -0.06688,-17.10421c0,-2.22192 0.61064,-5.54591 0.06688,-7.69053c-0.50467,-1.99045 -2.26135,-3.51672 -2.75497,-5.50994c-0.59793,-2.41443 -0.06688,-4.97444 -0.06688,-7.46181c0,-3.6733 0,-7.34659 0,-11.01989c0,0 0,-2.5 2.5,-2.5c0.08806,0 0.17301,0.0031 0.25497,0.00909v-0.26406c0,0 0,-0.09791 0.01938,-0.25497c-1.46893,0 -2.93787,0 -4.4068,0h-2.75497c0,0 -2.5,0 -2.5,-2.5c0,-2.5 2.5,-2.5 2.5,-2.5c4.59162,0 11.93821,0 16.52983,0c0,0 2.5,0 2.5,2.5c0,2.5 -2.5,2.5 -2.5,2.5c-1.46893,0 -2.93787,0 -4.4068,0c0.01938,0.15706 0.01938,0.25497 0.01938,0.25497v2.75497c0,1.64534 -0.482,3.34345 -0.06688,4.93556c0.63355,2.42988 2.26405,4.54425 2.77919,7.00196c0.58364,2.78454 0.96425,5.60804 1.40141,8.4193c0.15675,1.00805 0.09886,2.04342 0.01873,3.06043c-0.03897,0.49455 -0.69358,1.06175 -0.37337,1.44064c0.66272,0.78419 2.24362,0.48717 2.75497,1.37749c1.03882,1.8087 -0.20613,4.22806 0.3065,6.24989c0.50467,1.99045 2.26135,3.51672 2.75497,5.50994c0.26683,1.07746 0.13805,2.22163 0.06688,3.32935c-0.03181,0.49506 -0.69358,1.06175 -0.37337,1.44064c0.66272,0.78419 2.24362,0.48717 2.75497,1.37749c0.97458,1.69685 -0.77726,4.16261 0.18307,5.86756c0.63736,1.13155 1.83665,1.83665 2.75497,2.75497c0.17397,4.42215 2.54553,6.97899 4.13246,11.01989c0.60116,1.53077 1.21318,3.07603 1.53551,4.68871c0.34861,1.74421 -0.4911,3.61689 -0.0346,5.33602c0.26351,0.99233 1.12847,1.75891 1.37749,2.75497c0.22273,0.8909 -0.21236,1.86154 0,2.75497c0.19322,0.81291 0.8612,1.43915 1.18043,2.21132c0.22985,0.55598 -0.03156,1.39356 0.45575,1.74638c0.40182,0.29092 0.94652,-0.3294 1.44064,-0.37337c1.82942,-0.1628 3.6733,0 5.50994,0c6.88743,0 13.77486,0 20.66229,0c12.76746,0 25.75414,-1.24217 37.98269,2.88326c3.73608,1.26041 6.35821,1.19674 10.22932,1.24919c1.09187,0.01479 2.8257,0.99528 3.2759,0.00044c0.16765,-0.37048 -0.30455,-0.77388 -0.57942,-1.07356c-1.0044,-1.09504 -2.24446,-1.96076 -3.22654,-3.07586c-4.09038,-4.64441 -7.39745,-10.34177 -10.99545,-15.37898c-0.5864,-0.82406 -3.48782,-5.30828 -4.94116,-6.15011c-2.18971,-1.26836 -4.99474,-1.35636 -7.03488,-2.85349c-1.69471,-1.24364 -2.44429,-3.24016 -4.62255,-3.72744c-1.60565,-0.35919 -3.29022,0.06688 -4.93556,0.06688c-5.05078,0 -10.10156,0 -15.15234,0c-1.18957,0 -6.18283,0.08391 -6.82427,-0.37337c-2.03306,-1.44936 -1.89072,-4.63994 -2.49628,-7.06219c-0.24902,-0.99606 -1.14034,-1.75602 -1.37749,-2.75497c-0.42421,-1.78699 0.47137,-3.73481 0,-5.50994c-0.26351,-0.99233 -0.91832,-1.83665 -1.37749,-2.75497c0,-3.80065 -2.01682,-4.66481 -2.75497,-8.26491c-0.03642,-0.17761 -0.09234,-6.32588 -0.06688,-7.46181c0.01519,-0.67761 0.37481,-1.40777 0.10727,-2.03051c-0.65349,-1.5211 -2.1502,-2.59134 -2.75497,-4.13246c-0.37503,-0.95568 0.12524,-2.07206 -0.07499,-3.07898c-0.62738,-3.15492 -2.27718,-4.99872 -2.75497,-8.26491c-0.15616,-1.06751 0.84274,-2.26344 0.34109,-3.21859c-0.4774,-0.90898 -2.32712,-0.44416 -2.75497,-1.37749c-1.05797,-2.3079 -0.49166,-10.20573 -0.37337,-12.84416c0.05531,-1.23361 0.89897,-2.56827 0.37337,-3.68567c-0.43701,-0.92907 -2.20873,-0.50813 -2.75497,-1.37749c-0.62217,-0.9902 -0.01161,-2.36326 -0.3065,-3.49492c-0.84343,-3.23675 -2.74691,-4.82741 -2.78957,-8.43884c-0.45916,-1.37749 -1.09269,-2.70866 -1.37749,-4.13246c-0.16877,-0.84371 0.24459,-1.74664 0.0346,-2.58104c-0.25058,-0.99567 -1.28475,-1.73245 -1.37749,-2.75497c-0.15476,-1.70645 -0.54624,-3.88553 0.66536,-5.09712c1.2116,-1.2116 3.39363,-0.84983 5.09712,-0.66536c0.52971,0.05736 5.10269,2.56331 5.89227,2.8784c1.37491,0.54867 2.86913,0.7858 4.21074,1.41149c2.92329,1.36335 5.07025,4.10995 8.02049,5.41393c1.00241,0.44306 2.36292,-0.35694 3.27873,0.24508c1.00615,0.66141 0.97463,2.26733 1.83092,3.11383c0.63809,0.63079 1.73118,0.5788 2.44898,1.11715c2.91441,2.18581 5.01873,6.30715 8.11747,8.16639c1.4016,0.84096 3.42194,0.58878 4.5859,1.73635c1.07241,1.05731 0.61128,3.04523 1.49835,4.26222c0.49652,0.68119 1.67361,0.45617 2.32811,0.98738c1.36025,1.10401 2.87165,2.23439 3.60289,3.82637c0.59659,1.29882 0.08228,2.85737 0.12342,4.28606c-1.18232,2.47136 -1.65195,5.27817 -3.06147,7.62737c-0.60298,1.00497 -2.04777,1.3491 -2.5719,2.39735c-0.4648,0.9296 0.40855,2.25808 -0.18307,3.11259c-1.73901,2.51175 -5.76024,2.47885 -6.58093,6.14748c-0.35403,1.58257 -0.41422,5.55625 0,7.11615c0.26351,0.99233 1.18237,1.74696 1.37749,2.75497c0.4268,2.2049 -0.91797,4.67009 -0.04039,6.73735c0.55273,1.30203 1.65452,2.29539 2.44237,3.47017c0.80312,1.19754 1.32233,2.61302 2.32935,3.64501c3.42918,3.51421 10.53083,2.12917 14.87532,2.12917c3.21413,0 6.42827,0 9.6424,0c1.64534,0 3.34533,0.48915 4.93556,0.06688c0.99233,-0.26351 1.74819,-1.17616 2.75497,-1.37749c1.40764,-0.28149 2.88871,0.19095 4.30638,-0.0346c3.09484,-0.49237 6.16446,-2.5234 8.92482,-3.90081c6.4504,-3.21872 12.30494,-6.76625 15.25513,-13.64074c1.49612,-3.48622 -2.15773,-6.70748 -2.79536,-9.72104c-0.29716,-1.40441 -0.02306,-2.87092 -0.0346,-4.30638c-0.84143,-2.45951 -2.31548,-4.73712 -2.73761,-7.30208c-0.24582,-1.49365 0.65139,-3.11407 0.14065,-4.53904c-0.43819,-1.22255 -2.17959,-1.59068 -2.75497,-2.75497c-0.33486,-0.67759 0.83111,-1.73097 0.28159,-2.2499c-0.84632,-0.79923 -2.40509,-0.14022 -3.41868,-0.71263c-1.0205,-0.57631 -1.3547,-2.0367 -2.39735,-2.5719c-0.70455,-0.36165 -1.60337,0.31157 -2.37265,0.12342c-0.99732,-0.24392 -1.75676,-1.13724 -2.75497,-1.37749c-3.89036,-0.93632 -9.10822,0.06688 -13.20048,0.06688c-0.70041,0 -7.50147,0.12586 -8.20176,-0.37337c-1.35122,-0.96329 -1.94081,-2.74351 -2.49628,-4.30722c-0.26509,-0.74627 0.48508,-1.66809 0.12342,-2.37265c-0.5352,-1.04265 -1.97288,-1.39002 -2.5719,-2.39735c-1.81377,-3.0501 -2.35415,-7.26411 -3.7736,-10.56645c-0.91832,-0.45916 -2.03274,-0.64774 -2.75497,-1.37749c-0.81402,-0.82248 -0.94038,-2.13756 -1.63782,-3.06096c-2.15801,-2.85715 -4.49971,-5.3577 -6.77586,-8.12143c-0.61603,-0.74799 -0.71407,-1.95751 -1.53868,-2.46644c-3.06194,-1.88977 -6.69775,0.15556 -9.83401,-0.93578c-0.91221,-0.31743 -1.31424,-1.51318 -2.21032,-1.87364c-1.56701,-0.63034 -3.44986,-0.26598 -4.9649,-1.01266c-1.26199,-0.62196 -1.90824,-2.09133 -3.0371,-2.93105c-0.82379,-0.61279 -1.93448,-0.76027 -2.75497,-1.37749c-0.99156,-0.7459 -1.54803,-2.01068 -2.60752,-2.65645c-1.07653,-0.65615 -2.40943,-0.74357 -3.6087,-1.1324c-1.86081,-0.60332 -3.62169,-1.33214 -5.42083,-1.86905c-0.74578,0.19846 -1.49398,0.39026 -2.23074,0.61357l-3.47071,-1.53555c-0.52085,-0.17623 -1.13198,-0.54144 -1.42812,-1.29825c-0.21502,-0.42538 -0.31807,-0.96397 -0.12899,-1.61579c0.12239,-0.66755 0.45542,-1.10321 0.83798,-1.38751c0.57731,-0.52098 1.25221,-0.5923 1.78655,-0.53151c1.52666,0.02973 2.9651,0.24283 4.36889,0.56716c1.08876,-0.64658 2.12949,-1.39599 3.30116,-1.8669c2.1727,-0.87324 5.18724,-0.82416 7.22355,-2.36341c1.18468,-0.8955 1.87139,-2.51021 3.26004,-3.03656c1.04895,-0.39759 2.36928,1.1351 3.3214,0.54193c0.69677,-0.43409 -0.86239,-1.8909 -0.26034,-2.44898c3.42404,-3.17392 5.52616,-1.4506 8.97869,-3.41982c1.83283,-1.04539 2.19344,-3.6527 3.67902,-5.15108c0.68418,-0.69007 2.04195,-0.47802 2.63451,-1.2482c0.71359,-0.92748 0.56074,-2.27484 0.93033,-3.38517c0.50997,-1.53207 1.13709,-3.02263 1.70563,-4.53394c0.98133,-4.92343 2.26221,-8.87087 2.26221,-13.85967c0,-2.10447 0.57811,-4.27162 0.06688,-6.31305c-0.91259,-3.64412 -4.43671,-6.73236 -6.16188,-9.87321c-0.73364,-1.33567 -0.65417,-3.09247 -1.61124,-4.27832c-0.93632,-1.16014 -2.60742,-1.47116 -3.77609,-2.3968c-0.93245,-0.73854 -1.47832,-1.92699 -2.48433,-2.5617c-3.09374,-1.95191 -3.8465,-0.4335 -7.35104,-1.03639c-2.78753,-0.47955 -5.22355,-2.23199 -7.96681,-2.92108c-1.63568,-0.41087 -3.39601,-0.20575 -5.01283,-0.68549c-5.16873,-1.53367 -9.97083,-4.70251 -15.54711,-4.62606c-17.99533,0 -35.99067,0 -53.986,0c0.00598,0.08196 0.00909,0.16692 0.00909,0.25497c0,2.5 -2.5,2.5 -2.5,2.5c-3.42009,0 -7.73283,0.51511 -11.00569,-0.04965c-2.20049,-0.37971 -3.93591,-2.21592 -6.09852,-2.7722c-2.3734,-0.61051 -7.47853,-0.46179 -9.87112,0c-3.33617,0.64391 -5.17187,4.01928 -7.88259,5.38652c-0.71557,0.36092 -1.79684,-0.71382 -2.39735,-0.18307c-0.92526,0.81777 -0.81003,2.33637 -1.31433,3.46354c-0.68065,1.52135 -1.49071,2.98142 -2.23607,4.47214c-2.61532,5.23064 -5.22336,10.46499 -7.85161,15.68915c-1.35602,4.08581 -2.52026,8.40438 -4.13246,12.39737c-0.33492,0.8295 -1.02837,1.50703 -1.25406,2.37265c-0.41512,1.59211 0.06688,3.29022 0.06688,4.93556c0,3.2019 -0.67913,7.30519 -0.06688,10.4455c0.49104,2.51858 2.74053,2.62691 4.66179,4.15097c0.97723,0.77519 1.63629,1.90862 2.63177,2.66022c0.92353,0.69727 2.24771,0.81458 3.06096,1.63782c0.60161,0.60899 0.2193,1.91018 0.92405,2.39611c0.59862,0.41276 1.48958,-0.53514 2.1651,-0.2661c4.31673,1.7192 8.22928,5.15292 12.62962,6.97046c3.77892,1.56087 7.87155,2.62075 11.74665,3.94216c0.71767,0 2.44899,0 2.44899,0c1.38071,0 2.5,1.11929 2.5,2.5c0,0.99801 -0.58479,1.85943 -1.43041,2.26029l-2.70653,1.35326l-0.12564,-0.25127c-1.56798,1.23245 -3.25654,2.21437 -5.54563,3.07987c-1.1166,0.42219 -2.50263,0.23163 -3.45116,0.95642c-0.77198,0.58989 -0.56149,1.94635 -1.24772,2.6341c-0.72519,0.7268 -2.02897,0.65149 -2.75497,1.37749c-0.726,0.726 -0.6509,2.02956 -1.37749,2.75497c-0.76178,0.76055 -2.0982,0.73171 -2.86823,1.48391c-1.73768,1.69745 -2.41048,4.24954 -3.62469,6.26805c-0.82305,1.36824 -1.95407,2.54954 -2.67146,3.97602c-1.36882,2.7218 -1.29283,5.82327 -2.87413,8.48086c-2.12989,3.57955 -6.3705,6.37116 -7.99881,10.43002c-0.30185,0.75242 0.23279,1.63577 0.07499,2.43097c-0.28263,1.42422 -1.08266,2.71071 -1.37749,4.13246c-0.34583,1.66772 0.03228,3.40629 0.03228,5.10949c0,2.69469 0.26961,5.58529 0,8.26491c-0.15289,1.51954 0.34767,3.44284 -0.73223,4.52274c-0.9986,0.9986 -8.63695,0.73223 -9.52274,0.73223c-2.46579,0 -4.93285,0.07908 -7.39737,0c-0.60246,-0.01933 -1.27406,-0.48786 -1.79826,-0.1903c-1.01923,0.57855 -1.39238,1.96892 -2.39735,2.5719c-2.00345,1.20207 -4.86463,0.88155 -6.54725,2.50254c-3.12244,3.00807 -1.90948,7.97953 -1.90948,11.90066c0,2.05463 -0.76269,4.21568 -0.10727,6.16297c1.26287,3.75205 5.0667,6.28272 6.44133,10.17571c1.31786,0.85195 2.8449,1.44526 3.95359,2.55584c1.09422,1.09609 1.30565,2.93313 2.50469,3.91346c0.96104,0.78574 2.41298,0.60913 3.57168,1.05455c2.7182,1.04491 5.86548,1.57846 7.95883,3.60289c0.69586,0.67295 -0.53736,2.17253 0.09852,2.90242c0.86582,0.99381 2.5298,0.80065 3.68328,1.43844c0.73196,0.40472 1.08043,1.45263 1.89428,1.64553c1.51788,0.35977 3.14189,-0.35346 4.67899,-0.08754c1.35327,0.23412 2.56437,0.9886 3.81463,1.55694c0.78506,0.35686 1.45577,0.97468 2.28389,1.21527c3.2326,0.93913 7.95017,-2.57726 10.70496,-3.9354c0.88399,-0.43582 3.9155,-1.62606 4.31828,-2.8531c0.39007,-1.18834 -0.36018,-2.52202 -0.12342,-3.75013c0.19435,-1.00815 1.12691,-1.7593 1.37749,-2.75497c0.20999,-0.83441 -0.20857,-1.73839 -0.0346,-2.58104c0.33253,-1.61061 1.02367,-3.12581 1.53551,-4.68871c1.94466,-3.67924 1.2078,-5.53707 -0.03501,-9.19581c-0.51166,-1.50627 -0.60498,-3.13428 -1.12282,-4.63844c-0.59867,-1.73894 -2.13382,-1.43567 -3.50419,-2.46574c-0.99183,-0.74554 -1.55486,-1.99961 -2.60752,-2.65645c-1.45958,-0.91075 -3.79356,-0.54095 -4.77791,-1.95194c-0.59318,-0.85027 -1.29628,-9.75137 -1.43531,-11.28477c-0.41631,-4.59157 -0.47814,-9.07734 -0.48239,-13.6826c-0.00058,-0.63277 -0.01775,-5.74466 0.06688,-6.08639c0.49362,-1.99322 2.37932,-3.49116 2.75497,-5.50994c0.25199,-1.35424 -0.27852,-2.78342 0,-4.13246c0.61573,-2.98232 2.52894,-5.54122 3.72632,-8.34115c0.96747,-0.03284 2.0915,0.43015 2.90242,-0.09852c0.7171,-0.46751 0.29124,-1.8196 0.92405,-2.39611c1.09541,-0.99796 2.53099,-1.61049 3.94836,-2.04284c0.79059,-0.24116 1.7339,0.44172 2.47829,0.08244c1.2463,-0.60153 2.04179,-1.86926 3.09171,-2.7708c1.36257,-1.17 7.00602,-6.433 9.36582,-5.57365c6.00464,2.18666 4.66839,8.9385 4.66839,13.4501c0,6.42827 0,12.85653 0,19.2848c0,2.29581 0.09587,4.59362 0,6.88743c-0.02517,0.60224 -0.48612,1.27308 -0.1903,1.79826c0.63736,1.13155 1.83665,1.83665 2.75497,2.75497c0.25177,4.91053 0.1903,9.81555 0.1903,14.73157c0,2.62777 -0.58112,6.59527 -0.03228,9.24194c0.29483,1.42175 1.09269,2.70866 1.37749,4.13246c0.16877,0.84371 -0.23468,1.74421 -0.0346,2.58104c0.47751,1.99714 2.26135,3.51672 2.75497,5.50994c0.97438,3.93451 -0.76087,8.45528 0,12.39737c0.36714,1.9022 2.03362,3.35062 2.655,5.17722c0.11878,0.28272 0.18338,0.54638 0.20627,0.79095c-1.82673,0.48449 -3.68936,1.6232 -5.20003,3.93326c-3.73911,0.10163 -5.96964,1.36219 -9.73677,1.43786zM222.45958,265.51848c0.34512,1.36116 1.27573,2.50525 1.98752,3.73004c-0.0045,-0.03194 -0.00932,-0.06369 -0.01449,-0.09523c-0.44301,-2.70486 -0.82057,-5.42195 -1.35356,-8.11053c-0.11955,-0.60307 -0.31633,-1.18265 -0.55293,-1.75024c-0.01557,2.07716 -0.57663,4.21417 -0.06655,6.22596z"/><path d=""/></g></g></svg>