<svg version="1.1" xmlns="http://www.w3.org/2000/svg" xmlns:xlink="http://www.w3.org/1999/xlink" width="104.1875" height="124.87959" viewBox="0,0,104.1875,124.87959"><g transform="translate(-192.82143,-105.82143)"><g data-paper-data="{&quot;isPaintingLayer&quot;:true}" fill="#000dff" fill-rule="nonzero" stroke="none" stroke-linecap="butt" stroke-linejoin="miter" stroke-miterlimit="10" stroke-dasharray="" stroke-dashoffset="0" style="mix-blend-mode: normal"><text transform="translate(193.07143,127.57143) scale(0.5,0.5)" font-size="40" xml:space="preserve" fill="#000dff" fill-rule="nonzero" stroke="none" stroke-width="1" stroke-linecap="butt" stroke-linejoin="miter" stroke-miterlimit="10" stroke-dasharray="" stroke-dashoffset="0" font-family="Sans Serif" font-weight="normal" text-anchor="start" style="mix-blend-mode: normal"><tspan x="0" dy="0">i gotta fast</tspan></text><path d="M263.92395,159.3127c1.20202,1.54203 8.0577,15.61587 2.14748,15.61587c-2.42869,0 -3.85169,-6.91002 -4.48871,-8.63574c-0.38353,-1.039 -0.05433,-3.06079 -1.16061,-3.11327c-4.0856,-0.19382 -6.53305,4.46555 -9.98983,4.86602c-0.11782,0.01703 -0.2383,0.02585 -0.36084,0.02585c-1.38071,0 -2.5,-1.11929 -2.5,-2.5c0,-0.89405 0.46931,-1.67848 1.17501,-2.12039c0.41371,-0.44509 0.9003,-0.83986 1.41753,-1.19852c-5.35847,-3.74367 -8.41463,-6.49641 -15.84385,-9.34577c-1.95081,-0.7482 -3.92327,-1.44009 -5.90294,-2.10819c-1.77508,-0.59905 -6.40947,-3.24381 -5.35952,-1.69223c3.01272,4.45208 6.17203,8.80181 8.85942,13.43358c0.72593,1.25115 1.79869,2.53562 0.82209,4.00051c-1.74665,2.61997 -7.59906,0.72641 -9.46259,0.67389c-4.16237,-0.11733 -12.83577,-0.8926 -16.61001,1.30014c-0.07534,0.04377 0.37291,0.17474 0.52289,0.24951c1.47292,0.73424 2.92611,1.50907 4.41609,2.20804c1.4839,0.69612 2.99658,1.32935 4.50273,1.97593c2.64462,1.13531 12.94481,4.04786 14.73092,6.7129c3.01101,4.49269 -5.61145,10.84597 -8.50437,13.15855c-0.91045,0.72781 -1.82064,1.45618 -2.74477,2.16654c-0.50285,0.38653 -1.82334,0.60356 -1.51145,1.15581c0.36176,0.64056 1.47032,0.05478 2.20573,0.07352c2.09068,0.05328 4.18165,0.09486 6.27247,0.14256c2.70495,0.0617 10.63161,-1.23074 13.7603,0.25305l-0.07057,-1.02329l0.86672,-0.95339l0.42857,-0.28571l0.31447,-0.11231l0.28172,-0.17927l0.42857,-0.14286l0.40069,-0.03082l0.38988,-0.09747h2.14286l0.08255,0.02064l0.08374,-0.0151l2.14286,0.14286l0.18341,0.05906l0.19262,-0.00507l2.57143,0.57143l0.15894,0.07947l0.17655,0.02018l3.42857,1.28571l0.15474,0.10672l0.18155,0.04871l2.57143,1.42857l0.12639,0.11823l0.15951,0.06716l2.28571,1.71429l0.19142,0.2356l0.24347,0.18131l1.28571,1.57143l0.11926,0.25282l0.18192,0.21224l0.71429,1.42857l0.07244,0.32597l0.14295,0.30178l0.28571,1.42857l-0.01184,0.24872l0.06039,0.24157v1.85714l-0.04364,0.17457l0.01852,0.17899l-0.28571,2l-0.11316,0.27775l-0.04052,0.29717l-0.85714,2.14286l-0.0743,0.10288l0.00658,0.09538l-0.36712,0.40384l-0.31954,0.44244l-0.09469,0.01321l-0.08536,0.0939l-1.14999,0.76666l-0.0108,0.02592l-0.06696,0.02592l-0.05796,0.03864l-0.54097,0.1932l-0.5357,0.20737l-0.06912,0.00864l-0.06762,0.02415l-0.02512,-0.01256l-2.12385,0.26548l-0.15698,-0.01903l-0.15341,0.03833l-0.59012,-0.00007c1.65279,2.56367 2.93941,6.78789 -1.21535,6.78789c-2.31327,0 -2.31825,-4.25977 -4.06681,-4.92903c-0.49641,-0.19 -1.30172,-0.14157 -2.18838,-0.04685c1.81473,1.60488 3.36723,3.49724 1.86845,5.80609c-2.16494,3.33506 -9.01262,6.99467 -12.87407,7.53939c-2.59612,0.36622 -3.88106,-1.6259 -2.66817,-4.05167c0.86863,-1.73726 10.0268,-3.31431 10.49509,-5.39603c0.04981,-0.22144 -0.3434,-0.29691 -0.517,-0.44314c-0.89951,-0.75773 -5.18469,-4.02324 -4.45384,-5.48493c-0.00251,-0.04595 -0.00379,-0.09222 -0.00379,-0.1388c0,-0.62706 0.23086,-1.20019 0.61222,-1.63905l-0.40808,-0.1587c-5.52529,0.3079 -13.96646,-0.2839 -10.08307,-7.03458c0.53728,-0.93399 1.44141,-1.7463 2.24576,-2.40557c1.41158,-1.15696 2.05618,-1.65389 2.96645,-2.26635c-1.33035,-0.02216 -2.44627,-0.13815 -2.83329,-0.13862c-1.97259,-0.00243 -3.94398,-0.09715 -5.91602,-0.14355c-2.56792,-0.06042 -13.97442,0.81904 -15.8272,-1.25172c-3.38191,-3.77978 6.81935,-9.67494 8.55445,-11.15592c1.03975,-0.88748 2.04312,-1.81744 3.03451,-2.75864c1.23077,-1.16846 3.30631,-2.05934 3.44255,-3.75094c0.08538,-1.06015 -1.94488,-0.86253 -2.93104,-1.26089c-1.36098,-0.54977 -2.69631,-1.16108 -4.04773,-1.73393c-4.63668,-1.96545 -9.1717,-3.9807 -13.69175,-6.19758c-1.70617,-0.8368 -6.49876,-2.41898 -6.8466,-4.88482c-0.50993,-3.61488 3.84864,-3.86145 6.50048,-4.50164c4.16269,-1.00492 8.7303,-1.62713 13.01408,-1.64607c2.80708,-0.01242 5.76894,1.09333 8.41962,0.16934c0.08474,-0.02954 -0.59996,-0.72082 -0.78546,-0.99688c-1.33876,-1.99226 -2.65632,-3.99871 -3.99432,-5.99148c-2.4989,-3.72177 -8.40654,-8.63193 -5.88374,-13.04683c0.78258,-1.36952 8.60506,1.82963 9.10423,1.97973c8.55372,2.57201 17.18898,5.46877 24.75451,10.30832c1.31833,0.84331 4.5908,2.80542 5.45917,4.7707l0.16205,0.18906c0.00656,0.01313 0.013,0.02629 0.0193,0.0395c3.03942,-1.42493 7.13258,-2.75171 9.02572,-0.32305zM247.88203,199.68326c-1.21081,1.7822 -3.73513,3.05725 -6.15191,4.20462l-0.10212,0.14589l-0.60828,1.11519l-0.30543,1.52717l0,0.56694l0.51548,0.77322l0.21586,0.17661c0.40999,-0.03208 0.81961,-0.0685 1.22868,-0.11006c1.70923,-0.17364 13.28061,-3.61754 10.11509,2.41677l3.12654,0.00038l1.54551,-0.19319l0.1486,-0.09906l0.45747,-1.14367l0.21821,-1.52744l0,-1.43192l-0.17151,-0.85754l-0.4399,-0.8798l-0.91705,-1.12084l-1.90635,-1.42976l-2.25978,-1.25543l-3.0904,-1.1589l-1.31447,-0.29211c-0.07266,0.18838 -0.17305,0.37988 -0.30422,0.57295zM234.9283,208.25009c0.14796,0.42259 0.51752,0.5538 0.98574,0.54894l-0.02384,-0.09535l-0.1894,-0.53033l0.03788,-0.07576l-0.0244,-0.09758v-0.94377c-0.55897,0.31665 -0.96515,0.68214 -0.78598,1.19386z" stroke-width="0.5"/><path d="M238.30577,165.56932c1.2065,0.64034 7.94071,8.38264 7.56594,9.50696c-0.84624,2.53871 -3.7457,1.78253 -5.13948,0.54863c-0.92034,-0.81478 -1.7284,-1.82563 -2.57143,-2.71429c-0.17674,-0.18631 -0.38358,-0.83067 -0.48808,-0.59609c-0.85065,1.90943 -0.75242,5.68681 -1.9776,7.43264c-0.07374,0.10508 -0.16862,0.2065 -0.28033,0.30213c-0.45274,0.45487 -1.07946,0.73641 -1.77194,0.73641c-0.03441,0 -0.06865,-0.0007 -0.10272,-0.00207c-1.01897,0.08823 -2.02581,-0.29311 -2.20889,-1.54412c-0.12141,-0.29392 -0.18839,-0.61604 -0.18839,-0.95381c0,-0.17761 0.01852,-0.3509 0.05374,-0.51804c0.42562,-3.16012 3.17369,-14.28708 7.10917,-12.19836z" stroke-width="0.5"/><path d="M253.28571,184c0,0.406 -0.46177,1.10244 -1.09172,1.69589c-0.13979,0.15134 -0.29805,0.28536 -0.47119,0.39849c-0.94107,0.70978 -2.06422,1.05815 -2.6345,0.06016c-0.73685,-0.43488 -1.23117,-1.23698 -1.23117,-2.15454c0,-1.38071 1.11929,-2.5 2.5,-2.5c0.109,0 0.21637,0.00698 0.32168,0.0205c1.32989,-0.61043 2.60689,-0.35816 2.60689,2.4795z" stroke-width="0.5"/><path d="M270,178.42857c0,-1.38071 1.11929,-2.5 2.5,-2.5c1.38071,0 2.5,1.11929 2.5,2.5c0,1.38071 -1.11929,2.5 -2.5,2.5c-1.38071,0 -2.5,-1.11929 -2.5,-2.5z" stroke-width="0.5"/><path d="M260,191.42857c0.62607,-1.09562 1.8527,-1.87577 3.3178,-2.36318c4.06575,-1.35258 9.96791,-0.45069 9.96791,2.22032c0,4.02291 -6.75888,2.54797 -8.98887,2.62222c-0.21057,0.00701 -2.75125,0.22543 -3.06567,-0.32482z" stroke-width="0.5"/></g></g></svg>