<svg version="1.1" xmlns="http://www.w3.org/2000/svg" xmlns:xlink="http://www.w3.org/1999/xlink" width="104.1875" height="123.26668" viewBox="0,0,104.1875,123.26668"><g transform="translate(-192.82143,-105.82143)"><g data-paper-data="{&quot;isPaintingLayer&quot;:true}" fill="#000dff" fill-rule="nonzero" stroke="none" stroke-linecap="butt" stroke-linejoin="miter" stroke-miterlimit="10" stroke-dasharray="" stroke-dashoffset="0" style="mix-blend-mode: normal"><path d="M203.14286,192.57143c0.06107,-0.09295 0.12399,-0.1831 0.18869,-0.27054c0.52265,-2.84097 7.95733,-5.93736 9.33802,-6.74687c1.5725,-0.92197 3.11814,-1.889 4.67669,-2.83436c1.30894,-0.79395 2.72919,-1.68163 4.05583,-2.44563c0.02418,-0.01392 0.62049,-0.38327 1.44287,-0.87628c-1.50865,-0.93232 -2.812,-1.90935 -3.41541,-2.29724c-1.16656,-0.7499 -2.39389,-1.40736 -3.5255,-2.20904c-1.3197,-0.93493 -2.61036,-1.91132 -3.94818,-2.82013c-1.14905,-0.78058 -2.33715,-1.50208 -3.51001,-2.2464c-1.35133,-0.85758 -6.21817,-3.29641 -6.23433,-4.11253l-0.35439,-1.28384c0.14517,-0.15007 0.27923,-0.32624 0.40815,-0.51452c-0.58591,-0.03985 -1.17417,-0.08208 -1.76529,-0.12833c-1.31651,-0.10301 -2.5,-0.74751 -2.5,-2.5c0,-4.19503 8.25487,-2.23389 10.28298,-2.06251c6.35036,0.53664 11.93423,2.3945 17.82122,3.9619c-1.72801,-4.11248 -3.28402,-8.25781 -4.76644,-12.48694c-0.02667,-0.07609 -3.87315,-8.5453 -2.13516,-9.53844l0.58367,-0.33353c1.41413,-2.5187 5.55228,0.06519 7.26006,0.67346c6.82405,2.43056 14.8688,5.63256 20.49709,10.30615c2.3735,1.9709 3.42164,2.68723 5.11081,4.67613c0.36726,0.43243 1.47299,1.8315 1.19912,2.37925c0.00251,0.04595 0.00379,0.09222 0.00379,0.1388c0,1.38071 -1.11929,2.5 -2.5,2.5c-0.58137,0 -1.11639,-0.19845 -1.54102,-0.53129c-1.40134,-0.63433 -2.4428,-3.12467 -5.3567,-5.22266c-4.55002,-3.27599 -9.94551,-5.81434 -15.07241,-8.01165c-0.47691,-0.2044 -2.21911,-0.65068 -4.11454,-1.33141c0.20776,0.81243 0.44528,1.69032 0.7799,2.64261c0.92781,2.64048 2.70086,7.62845 3.83156,10.38699c0.31153,0.76003 1.8612,3.56109 2.6576,6.07349c0.37232,0.36737 0.62993,0.85071 0.71423,1.39144c0.45726,1.00646 0.49143,2.09482 -0.77084,2.61003c-0.52965,0.47049 -1.49892,0.54994 -3.09675,0.01734c-0.03774,-0.01258 -0.0757,-0.0296 -0.11383,-0.05073c-1.80207,-0.62332 -4.0209,-1.93946 -4.97272,-2.23343c-1.95294,-0.60319 -3.95069,-1.05278 -5.94062,-1.51969c-3.04181,-0.71372 -6.02452,-1.07892 -9.01716,-1.32731c0.83803,0.56017 1.51077,1.04064 1.78049,1.21186c4.57676,2.90534 8.95247,6.1042 13.54792,8.98082c1.0178,0.63711 3.26095,1.32404 4.62638,2.44608c0.83766,0.40385 1.41566,1.26104 1.41566,2.25324c0,0.5561 -0.18157,1.0698 -0.48866,1.48504c-0.59834,1.47734 -3.48951,2.17385 -6.33481,3.82484c-3.05915,1.77508 -6.0424,3.66416 -9.08626,5.45575c1.78216,0.20997 3.51175,0.43695 5.01023,0.44866c4.0262,0.03147 8.05282,0.03674 12.07898,0c1.54341,-0.01408 3.2874,-0.55242 3.65254,2.00359c0.33508,2.34557 -1.82319,2.99063 -3.47487,2.99641c-6.15269,0.02155 -12.30543,-0.06291 -18.45764,-0.14286c-3.45962,-0.04496 -4.2415,0.10734 -7.07074,-0.17033c-0.4229,-0.04151 -2.21006,-0.11547 -2.42668,-0.63537l-0.44909,-0.9134c-0.15983,-0.21218 -0.26386,-0.42847 -0.31842,-0.64764z" stroke-width="0.5"/><path d="M237.11325,164.20559c2.79628,-2.04344 5.91773,3.74511 5.18804,5.93417c-0.26557,0.79672 -0.64639,1.72074 -1.39754,2.09631c-0.7833,0.39165 -1.98957,-0.86873 -2.6148,-0.25552c-1.55679,1.52685 -0.87646,4.72114 -2.3985,6.3341c-0.0946,0.10025 -0.21229,0.19362 -0.34755,0.27808c-0.41283,0.30105 -0.9214,0.4787 -1.47147,0.4787c-0.06668,0 -0.13275,-0.00261 -0.19812,-0.00774c-1.11732,0.035 -2.22724,-0.45775 -2.22724,-1.88349c-0.04876,-0.19487 -0.07464,-0.3988 -0.07464,-0.60878c0,-0.26108 0.04002,-0.5128 0.11426,-0.74939c0.64494,-3.79103 2.57612,-9.5327 5.42756,-11.61645z" stroke-width="0.5"/><path d="M253.25992,161.02991c5.38849,-4.92085 9.61501,-3.32472 12.85405,2.47027c1.01126,1.80924 4.5794,6.55537 1.36121,8.16446c-3.98386,1.99193 -5.75816,-7.65064 -7.74375,-8.70784c-1.42439,-0.7584 -3.22941,1.74872 -4.94736,3.64565c-0.26961,1.08969 -1.25393,1.89755 -2.42693,1.89755c-1.38071,0 -2.5,-1.11929 -2.5,-2.5c0,-0.34361 0.06932,-0.67103 0.19475,-0.96904c0.55729,-1.55038 2.17884,-3.06118 3.20803,-4.00105z" stroke-width="0.5"/><path d="M249,182.42857c0,-1.38071 1.11929,-2.5 2.5,-2.5c1.38071,0 2.5,1.11929 2.5,2.5c0,1.38071 -1.11929,2.5 -2.5,2.5c-1.38071,0 -2.5,-1.11929 -2.5,-2.5z" stroke-width="0.5"/><path d="M269.42857,180.14286c0,-1.38071 1.11929,-2.5 2.5,-2.5c1.38071,0 2.5,1.11929 2.5,2.5c0,1.38071 -1.11929,2.5 -2.5,2.5c-1.38071,0 -2.5,-1.11929 -2.5,-2.5z" stroke-width="0.5"/><path d="M274.5,188.64286c2.78281,0.05983 2.91335,3.02415 1.25,4.6875c-3.42689,3.42689 -9.69036,0.41119 -14.53571,0.3125c-0.02415,-0.00049 -0.04884,-0.00082 -0.07396,-0.00107c-1.3465,-0.03912 -2.42604,-1.14295 -2.42604,-2.49893c0,-0.91577 0.49239,-1.71654 1.22687,-2.152c0.23922,-0.18958 0.56043,-0.30393 1.05006,-0.33818c0.07349,-0.0065 0.14789,-0.00982 0.22306,-0.00982c4.42765,-0.09018 8.85817,-0.09519 13.28571,0z" stroke-width="0.5"/><path d="M262.90309,219.19053c1.61107,0.80483 3.27327,1.503 4.91366,2.24624c1.99157,0.90236 5.52663,1.95789 7.10665,3.80125c1.85829,2.16801 -1.30317,4.43041 -3.39237,3.71543c-5.13219,-1.75636 -11.34041,-5.26937 -16.03174,-8.12799c-2.06047,-1.25553 -6.72984,-4.06301 -6.42009,-5.19877c-0.03233,-0.12525 -0.0552,-0.2543 -0.06779,-0.38635c-0.07045,0.01564 -0.14063,0.0313 -0.21052,0.047c-1.24782,0.28032 -2.63102,0.23602 -3.9339,0.14112c-0.25106,0.48766 -0.6578,0.88206 -1.15454,1.11754c-3.60005,2.1694 -7.78127,3.51139 -11.57684,5.28842c-0.73531,0.34426 -5.38445,3.85131 -6.79459,4.13333c-3.48091,0.69618 -4.6799,-2.94675 -2.25734,-4.74215c3.5905,-2.66097 7.76901,-4.27008 11.82584,-6.07994c1.05824,-0.47211 2.11452,-0.94927 3.16571,-1.43724c-2.59508,-1.55421 -3.68969,-4.12251 -2.34876,-7.51907c-0.23158,0.0051 -0.46294,0.01255 -0.69398,0.02313c-3.20044,0.14668 -6.40316,0.28561 -9.59481,0.5644c-4.91001,0.42889 -9.79477,1.11621 -14.70261,1.56921c-1.76626,0.16303 -5.26545,1.189 -5.5798,-1.95449c-0.40345,-4.0345 9.89737,-3.42006 11.51279,-3.5926c7.39387,-0.78972 14.74954,-1.1077 22.13709,-1.60209c1.6518,-2.28499 4.41779,-5.69598 5.8711,-4.83956l2.46661,2.49978c-0.19524,0.7357 -0.56295,1.39781 -1.02699,2.02018c-0.36692,0.49211 -0.79406,0.95936 -1.24377,1.41848c0.17314,0.34006 0.27077,0.72502 0.27077,1.13278c0,1.32366 -1.0287,2.40705 -2.33024,2.49433c-0.43377,0.07594 -0.86971,0.13102 -1.30725,0.17073c-0.76657,1.13793 -2.31464,2.91786 -1.21713,3.46887c3.49096,1.75264 12.61223,1.53094 15.02668,-2.05581c3.41076,-5.06681 -11.19617,-2.13437 -5.06492,-8.26562c1.26886,-1.26886 5.58606,0.28341 6.75776,0.86301c0.91295,0.45161 1.65268,1.07524 2.22136,1.80879c1.89689,-0.43661 4.15584,0.47746 7.64218,0.58828c4.98732,0.15853 9.97518,0.30088 14.96341,0.42742c1.70585,0.04327 6.451,-0.98916 6.451,2.5c0,4.38772 -12.16446,2.26176 -13.85785,2.21338c-2.58839,-0.07395 -5.18056,-0.02015 -7.767,-0.14507c-1.87351,-0.09048 -3.92726,-0.15416 -5.79641,-0.31066c-0.08463,-0.00709 -0.1724,-0.01143 -0.26267,-0.0137c-0.24081,2.00349 -1.26428,3.93632 -3.04831,5.16668c-0.78574,0.54189 -1.65869,0.97064 -2.57593,1.32396c2.07442,1.20079 4.31162,3.72199 7.92554,5.52738z" stroke-width="0.5"/><text transform="translate(193.07143,127.57143) scale(0.5,0.5)" font-size="40" xml:space="preserve" fill="#000dff" fill-rule="nonzero" stroke="none" stroke-width="1" stroke-linecap="butt" stroke-linejoin="miter" stroke-miterlimit="10" stroke-dasharray="" stroke-dashoffset="0" font-family="Sans Serif" font-weight="normal" text-anchor="start" style="mix-blend-mode: normal"><tspan x="0" dy="0">i gotta fast</tspan></text></g></g></svg>