<svg version="1.1" xmlns="http://www.w3.org/2000/svg" xmlns:xlink="http://www.w3.org/1999/xlink" width="177.2748" height="83.61009" viewBox="0,0,177.2748,83.61009"><g transform="translate(-124.94656,-109.91667)"><g data-paper-data="{&quot;isPaintingLayer&quot;:true}" fill="#9966ff" fill-rule="nonzero" stroke="none" stroke-linecap="butt" stroke-linejoin="miter" stroke-miterlimit="10" stroke-dasharray="" stroke-dashoffset="0" style="mix-blend-mode: normal"><path d="M144.93443,141.43443c-1.76777,1.76777 -3.53553,0 -3.53553,0l-1.59345,-1.63902c-1.94908,-2.70394 -3.8593,-5.43774 -5.68127,-8.22891c-0.79125,-1.21215 -1.69147,-2.36369 -2.41471,-3.61504c0.02539,1.3032 -0.06587,2.62586 -0.04323,4.00226c0.1191,7.24136 0.66624,14.46831 0.66709,21.71294c0,0 0,2.5 -2.5,2.5c-2.5,0 -2.5,-2.5 -2.5,-2.5c0.00107,-8.84624 -1.21377,-17.83446 -0.66667,-26.66667c0.20873,-3.36962 -0.90628,-11.21071 6.55342,-7.08013c1.60715,0.88991 1.58106,3.32035 2.49213,4.9156c2.38702,4.17957 5.33807,8.1379 8.14901,12.03578l1.07321,1.02765c0,0 1.76777,1.76777 0,3.53553z" stroke-width="0.5"/><path d="M183.69234,149.32645c0.79742,0.38217 1.57782,0.7484 2.29856,1.12436c4.40627,2.29842 8.27288,5.398 12.44958,8.06115c2.50013,1.59414 5.27145,2.78451 8.09735,3.68241c0.33048,0.10501 0.72836,0.583 0.98117,0.34567c0.86695,-0.81387 0.44421,-3.1379 0.48356,-3.98666c0.0227,-0.48964 0.64678,-4.89375 0.20388,-5.89191c-2.14201,-4.82744 -9.61345,-6.01863 -13.99676,-6.47872c-3.90559,-0.44143 -6.37048,-0.75576 -9.65946,1.56616l-0.63678,1.30451c0,0 -0.07671,0.11507 -0.22111,0.27303zM179.44635,146.94141c0.13235,-0.39972 0.30686,-0.66149 0.30686,-0.66149l2.02989,-2.69549c4.44126,-2.82638 7.79361,-2.92658 12.97271,-2.37176c6.32486,0.72219 15.06781,2.78265 18.03774,9.4592c1.06521,2.39464 0.34574,5.6554 0.20388,8.10809c-0.18429,3.18621 0.59859,5.486 -2.84977,8.01334c-1.17379,0.86028 -2.90979,0.53912 -4.35216,0.34567c-7.02557,-0.94227 -12.58248,-6.36877 -18.30452,-10.02991c-4.18919,-2.68037 -9.49068,-3.94636 -12.80505,-7.88963c-3.16181,-3.76175 -5.01629,-6.27945 -1.32083,-10.28606c2.98752,-3.23906 9.72521,-4.61233 13.65293,-6.39058c4.07285,-2.73609 10.07989,-6.51159 11.46384,-11.6939c0.08097,-0.30321 -0.62321,0.18331 -0.93248,0.13c-1.11939,-0.19296 -2.19959,-0.56826 -3.29761,-0.85918c-3.12057,-0.8268 -6.2932,-1.48055 -9.48891,-1.93772c-4.40833,-0.63065 -8.67317,-0.93787 -13.14032,-0.68168c-1.40825,0.08076 -5.09583,0.10925 -6.38493,1.72557c-1.97382,2.47483 -1.90293,4.9929 -2.36725,7.9588c-0.75115,4.79809 -1.53295,9.48019 -1.87672,14.32678c0,0 -0.17812,2.49365 -2.67176,2.31553c-2.49365,-0.17812 -2.31553,-2.67176 -2.31553,-2.67176c0.35865,-4.98775 1.12415,-9.82449 1.92657,-14.75905c0.67152,-4.12954 0.65169,-7.13231 3.63493,-10.56631c2.48521,-2.86072 6.31917,-3.06449 9.72188,-3.31847c8.15474,-0.60866 16.40762,0.66759 24.25219,2.77763c1.6302,0.43849 7.17942,1.44884 7.64288,3.8621c0.43901,2.28595 -0.93069,4.60465 -1.90697,6.71774c-2.32261,5.02713 -7.44985,8.11124 -11.82464,11.04084c-3.08952,1.40929 -6.28282,2.57976 -9.40301,3.91979c-1.05943,0.45499 -2.1094,0.95114 -3.08194,1.57048c-0.28753,0.18311 -0.76799,0.48347 -0.63853,0.79882c0.64637,1.57443 1.77708,2.76672 3.11664,3.74262z" stroke-width="0.5"/><path d="M157.37781,166.67416c-2.34082,0.87781 -3.21863,-1.46301 -3.21863,-1.46301l-1.08659,-2.94642c-0.29074,-2.24464 -0.77981,-4.4632 -1.33128,-6.65838c0,0 -0.60634,-2.42536 1.81902,-3.0317c2.42536,-0.60634 3.0317,1.81902 3.0317,1.81902c0.54799,2.20191 1.0651,4.42204 1.33539,6.67495l0.91341,2.38691c0,0 0.87781,2.34082 -1.46301,3.21863z" stroke-width="0.5"/><path d="M169.28958,171.45801c-2.45801,0.45625 -2.91426,-2.00176 -2.91426,-2.00176l-0.33255,-1.92226c-1.19956,-3.60303 -2.18097,-7.18591 -3.27066,-10.81562c0,0 -0.71837,-2.39457 1.6762,-3.11294c2.39457,-0.71837 3.11294,1.6762 3.11294,1.6762c1.07394,3.58227 2.03892,7.11759 3.22495,10.67122l0.50517,2.5909c0,0 0.45625,2.45801 -2.00176,2.91426z" stroke-width="0.5"/><path d="M171.27278,177.8593c-0.55825,0.03953 -1.1226,0.04921 -1.68699,0.06162c0.28917,0.47451 0.56856,0.95428 0.81299,1.45284c0.11729,0.23924 -0.16364,0.7639 0.10123,0.79291c0.25752,0.0282 -0.01943,-0.53512 0.08404,-0.77262c0.22028,-0.50564 0.40211,-1.06302 0.68874,-1.53475zM164.14704,178.486c-0.2529,-0.17611 -0.49939,-0.42424 -0.72717,-0.76591c-1.38675,-2.08013 0.69338,-3.46688 0.69338,-3.46688l1.93954,-1.04622c2.18374,-0.39128 5.30212,-1.18379 7.58546,-0.70317c1.79406,0.37763 4.64628,0.11626 5.17145,1.8728c0.61063,2.04238 -1.90472,3.81487 -2.90872,5.69533c-1.03596,1.94031 -2.63722,5.08753 -5.40098,5.09471c-3.06484,0.00796 -4.97368,-4.29925 -6.14373,-6.21376c0,0 -0.10798,-0.17997 -0.20923,-0.46691z" stroke-width="0.5"/><path d="M125.73223,179.1011c-1.76777,-1.76777 0,-3.53553 0,-3.53553l1.64386,-1.27061c6.04363,-1.9945 12.13693,-2.12657 18.45724,-2.12829c0,0 2.5,0 2.5,2.5c0,2.5 -2.5,2.5 -2.5,2.5c-5.75447,-0.00162 -11.38022,0.01868 -16.8761,1.87171l0.31053,0.06273c0,0 -1.76777,1.76777 -3.53553,0z" stroke-width="0.5"/><path d="M130.26393,190.11803c-1.11803,-2.23607 1.11803,-3.3541 1.11803,-3.3541l2.1565,-1.07162c1.33333,-0.55556 2.66667,-1.11111 4,-1.66667c0,0 2.30769,-0.96154 3.26923,1.34615c0.96154,2.30769 -1.34615,3.26923 -1.34615,3.26923c-1.33333,0.55556 -2.66667,1.11111 -4,1.66667l-1.8435,0.92838c0,0 -2.23607,1.11803 -3.3541,-1.11803z" stroke-width="0.5"/><path d="M202.3989,178.43443c-0.78459,-0.78459 -0.87273,-1.56919 -0.72807,-2.19923c-2.03382,0.47837 -4.17271,0.37745 -6.2554,0.58572c0,0 -2.48759,0.24876 -2.73635,-2.23883c-0.24876,-2.48759 2.23883,-2.73635 2.23883,-2.73635c2.46695,-0.2467 9.34437,-1.90395 11.34986,0.05316c1.07221,1.04635 0.48816,2.95629 0.73223,4.43443l-1.06557,2.1011c0,0 -1.76777,1.76777 -3.53553,0zM202.06186,176.11087l-0.06186,0.22246c0.24408,-0.29963 0.82532,-0.52381 0.73223,-0.8989c-0.07675,-0.30924 -0.36414,0.45305 -0.67037,0.67644z" stroke-width="0.5"/><path d="M213.30727,192.29144c-1.29144,2.1406 -3.43204,0.84916 -3.43204,0.84916l0.06037,-0.11336c-5.70211,-1.28442 -11.2681,-2.87187 -16.6974,-5.03938c0,0 -2.32119,-0.92848 -1.39272,-3.24967c0.92848,-2.32119 3.24967,-1.39272 3.24967,-1.39272c5.17715,2.07514 10.49622,3.5827 15.93719,4.80353l1.42577,0.71039c0,0 2.1406,1.29144 0.84916,3.43204z" stroke-width="0.5"/><text transform="translate(228.16667,131.66667) scale(0.5,0.5)" font-size="40" xml:space="preserve" fill="#9966ff" fill-rule="nonzero" stroke="none" stroke-width="1" stroke-linecap="butt" stroke-linejoin="miter" stroke-miterlimit="10" stroke-dasharray="" stroke-dashoffset="0" font-family="Sans Serif" font-weight="normal" text-anchor="start" style="mix-blend-mode: normal"><tspan x="0" dy="0">tanuki</tspan><tspan x="0" dy="46.15px">gaming</tspan></text></g></g></svg>